<svg width="1280" height="720" viewBox="0 0 1280 720" fill="none" xmlns="http://www.w3.org/2000/svg">
  <rect width="1280" height="720" rx="36" fill="#090A13"/>
  <rect x="40" y="40" width="1200" height="640" rx="28" fill="url(#bg)"/>
  <rect x="84" y="84" width="736" height="552" rx="28" fill="#121426" stroke="#2B304E"/>
  <rect x="856" y="84" width="340" height="552" rx="28" fill="#10111E" stroke="#2B304E"/>
  <rect x="112" y="112" width="208" height="52" rx="18" fill="#171A2F"/>
  <text x="140" y="145" fill="#B7BEDB" font-family="Arial, sans-serif" font-size="20">Demo Mode</text>
  <text x="112" y="210" fill="#F7F8FF" font-family="Arial, sans-serif" font-size="44" font-weight="700">Nearby merchants</text>
  <text x="112" y="252" fill="#98A3CB" font-family="Arial, sans-serif" font-size="24">Tap one merchant pin to reveal the active quest.</text>
  <circle cx="300" cy="362" r="22" fill="#14F195"/>
  <circle cx="450" cy="424" r="22" fill="#FF6B2C"/>
  <circle cx="608" cy="310" r="22" fill="#9945FF"/>
  <circle cx="544" cy="512" r="22" fill="#14F195"/>
  <path d="M260 330C330 280 420 276 498 320C571 360 626 445 690 474" stroke="#2D365B" stroke-width="8" stroke-linecap="round"/>
  <rect x="884" y="120" width="284" height="34" rx="12" fill="#171A2F"/>
  <text x="904" y="143" fill="#C6CCEA" font-family="Arial, sans-serif" font-size="16">Active quest</text>
  <text x="884" y="210" fill="#FFFFFF" font-family="Arial, sans-serif" font-size="34" font-weight="700">Visit the signal zone</text>
  <text x="884" y="250" fill="#98A3CB" font-family="Arial, sans-serif" font-size="21">Merchant: Night Market Cafe</text>
  <text x="884" y="283" fill="#98A3CB" font-family="Arial, sans-serif" font-size="21">Reward: 1.25 PIKO</text>
  <text x="884" y="316" fill="#98A3CB" font-family="Arial, sans-serif" font-size="21">Distance: 140m</text>
  <rect x="884" y="384" width="284" height="74" rx="22" fill="url(#cta)"/>
  <text x="927" y="429" fill="#FFFFFF" font-family="Arial, sans-serif" font-size="24" font-weight="700">Complete Quest</text>
  <text x="962" y="575" fill="#6F7AA5" font-family="Arial, sans-serif" font-size="18">Existing quest flow reused</text>
  <defs>
    <linearGradient id="bg" x1="40" y1="40" x2="1240" y2="680" gradientUnits="userSpaceOnUse">
      <stop stop-color="#0D1020"/>
      <stop offset="1" stop-color="#171A2D"/>
    </linearGradient>
    <linearGradient id="cta" x1="884" y1="384" x2="1168" y2="458" gradientUnits="userSpaceOnUse">
      <stop stop-color="#FF6B2C"/>
      <stop offset="1" stop-color="#9945FF"/>
    </linearGradient>
  </defs>
</svg>
